# xmcd
#
# Track frame offsets: 
#        150
#        11479
#        34226
#        55014
#        67522
#        94187
#
# Disc length: 1477 seconds
#
# Revision: 3
# Processed by: cddbd v1.5.2PL0 Copyright (c) Steve Scherf et al.
# Submitted via: ExactAudioCopy v0.95b4
#
DISCID=3d05c306
DTITLE=Queens Of The Stone Age - Stone Age Complication EP
DYEAR=2004
DGENRE=Metal
TTITLE0=Who'll Be The Next In Line
TTITLE1=Wake Up Screaming
TTITLE2=No One Knows (UNKLE Remix)
TTITLE3=The Most Exalted Potentate Of Love
TTITLE4=Born To Hula
TTITLE5=The Bronze
EXTD=
EXTT0=
EXTT1=
EXTT2=
EXTT3=
EXTT4=
EXTT5=
PLAYORDER=
